<svg width="1440" height="1024" viewBox="0 0 1440 1024" fill="none" xmlns="http://www.w3.org/2000/svg">
<rect width="1440" height="1024" fill="#E5E5E5"/>
<rect width="1440" height="1024" fill="white"/>
<path d="M1093.41 136L1439.82 336V736L1093.41 936L747 736V336L1093.41 136Z" fill="#2F64EC" fill-opacity="0.83"/>
<path d="M125.592 641H32.568C30.072 641 28.824 639.848 28.824 637.544V622.856C28.824 620.552 30.072 619.4 32.568 619.4H54.456V455.816H32.568C30.072 455.816 28.824 454.664 28.824 452.36V437.672C28.824 435.368 30.072 434.216 32.568 434.216H125.304C144.504 434.216 159.384 439.304 169.944 449.48C180.696 459.656 186.072 473 186.072 489.512C186.072 508.904 177.528 523.4 160.44 533C185.016 540.104 197.304 556.424 197.304 581.96C197.304 600.008 191.256 614.408 179.16 625.16C167.256 635.72 149.4 641 125.592 641ZM79.512 619.4H123.576C138.744 619.4 150.552 616.232 159 609.896C167.64 603.368 171.96 593.384 171.96 579.944C171.96 555.944 156.408 543.944 125.304 543.944H79.512V619.4ZM79.512 524.936H123.576C133.56 524.744 142.2 521.864 149.496 516.296C156.984 510.728 160.728 501.992 160.728 490.088C160.728 478.184 156.792 469.544 148.92 464.168C141.24 458.6 131.736 455.816 120.408 455.816H79.512V524.936ZM345.239 622.856C331.799 636.296 314.615 643.016 293.687 643.016C272.759 643.016 255.575 636.392 242.135 623.144C228.695 609.704 221.975 591.944 221.975 569.864C221.975 547.592 228.791 529.928 242.423 516.872C256.055 503.816 273.143 497.288 293.687 497.288C314.423 497.288 331.511 503.912 344.951 517.16C358.583 530.216 365.399 547.784 365.399 569.864C365.399 591.752 358.679 609.416 345.239 622.856ZM246.167 569.864C246.167 585.608 250.775 598.376 259.991 608.168C269.207 617.96 280.439 622.856 293.687 622.856C307.127 622.856 318.455 617.96 327.671 608.168C336.887 598.376 341.495 585.608 341.495 569.864C341.495 554.12 336.791 541.448 327.383 531.848C318.167 522.248 307.031 517.448 293.975 517.448C280.919 517.448 269.687 522.248 260.279 531.848C250.871 541.448 246.167 554.12 246.167 569.864ZM509.489 622.856C496.049 636.296 478.865 643.016 457.937 643.016C437.009 643.016 419.825 636.392 406.385 623.144C392.945 609.704 386.225 591.944 386.225 569.864C386.225 547.592 393.041 529.928 406.673 516.872C420.305 503.816 437.393 497.288 457.937 497.288C478.673 497.288 495.761 503.912 509.201 517.16C522.833 530.216 529.649 547.784 529.649 569.864C529.649 591.752 522.929 609.416 509.489 622.856ZM410.417 569.864C410.417 585.608 415.025 598.376 424.241 608.168C433.457 617.96 444.689 622.856 457.937 622.856C471.377 622.856 482.705 617.96 491.921 608.168C501.137 598.376 505.745 585.608 505.745 569.864C505.745 554.12 501.041 541.448 491.633 531.848C482.417 522.248 471.281 517.448 458.225 517.448C445.169 517.448 433.937 522.248 424.529 531.848C415.121 541.448 410.417 554.12 410.417 569.864ZM700.879 641H685.327C679.375 641 674.287 638.024 670.063 632.072L619.087 562.952L591.151 588.872V621.704H606.415C608.911 621.704 610.159 622.856 610.159 625.16V637.544C610.159 639.848 608.911 641 606.415 641H551.407C548.911 641 547.663 639.848 547.663 637.544V625.16C547.663 622.856 548.911 621.704 551.407 621.704H567.247V453.512H551.407C548.911 453.512 547.663 452.36 547.663 450.056V437.672C547.663 435.368 548.911 434.216 551.407 434.216H587.695C589.999 434.216 591.151 435.368 591.151 437.672V566.696L643.567 518.6H633.199C630.895 518.6 629.743 517.448 629.743 515.144V502.76C629.743 500.456 630.895 499.304 633.199 499.304H688.495C690.799 499.304 691.951 500.456 691.951 502.76V515.144C691.951 517.448 690.799 518.6 688.495 518.6H669.775L634.639 549.416L688.495 621.704H700.879C703.183 621.704 704.335 622.856 704.335 625.16V637.544C704.335 639.848 703.183 641 700.879 641Z" fill="black"/>
<path d="M1061.23 641H912.044C909.356 641 908.012 639.752 908.012 637.256V624.872C908.012 622.952 909.932 619.688 913.772 615.08L1030.7 455.816H932.203V479.144C932.203 481.832 930.86 483.176 928.172 483.176H912.044C909.356 483.176 908.012 481.832 908.012 479.144V437.96C908.012 435.464 909.356 434.216 912.044 434.216H1061.23C1063.72 434.216 1064.97 435.464 1064.97 437.96V448.616C1064.97 451.88 1063.05 455.816 1059.21 460.424L942.284 619.4H1041.07V596.072C1041.07 593.384 1042.32 592.04 1044.81 592.04H1061.23C1063.72 592.04 1064.97 593.384 1064.97 596.072V637.256C1064.97 639.752 1063.72 641 1061.23 641ZM1148.38 641H1093.38C1090.88 641 1089.63 639.848 1089.63 637.544V625.16C1089.63 622.856 1090.88 621.704 1093.38 621.704H1109.22V518.6H1093.38C1090.88 518.6 1089.63 517.448 1089.63 515.144V502.76C1089.63 500.456 1090.88 499.304 1093.38 499.304H1129.66C1131.97 499.304 1133.12 500.456 1133.12 502.76V621.704H1148.38C1150.88 621.704 1152.13 622.856 1152.13 625.16V637.544C1152.13 639.848 1150.88 641 1148.38 641ZM1131.97 456.68C1135.23 459.944 1136.86 463.784 1136.86 468.2C1136.86 472.616 1135.23 476.36 1131.97 479.432C1128.9 482.504 1125.15 484.04 1120.74 484.04C1116.32 484.04 1112.48 482.504 1109.22 479.432C1106.14 476.36 1104.61 472.616 1104.61 468.2C1104.61 463.784 1106.14 459.944 1109.22 456.68C1112.48 453.416 1116.32 451.784 1120.74 451.784C1125.15 451.784 1128.9 453.416 1131.97 456.68ZM1327.22 641H1299.86C1291.61 641 1287.48 636.968 1287.48 628.904V553.16C1287.48 542.024 1284.79 533.384 1279.41 527.24C1274.04 521.096 1266.17 518.024 1255.8 518.024C1241.01 518.024 1229.49 524.072 1221.24 536.168C1220.28 537.32 1219.03 539.432 1217.49 542.504V621.704H1232.76C1235.25 621.704 1236.5 622.856 1236.5 625.16V637.544C1236.5 639.848 1235.25 641 1232.76 641H1177.75C1175.25 641 1174.01 639.848 1174.01 637.544V625.16C1174.01 622.856 1175.25 621.704 1177.75 621.704H1193.59V518.6H1177.75C1175.25 518.6 1174.01 517.448 1174.01 515.144V502.76C1174.01 500.456 1175.25 499.304 1177.75 499.304H1211.45C1213.94 499.304 1215.19 500.456 1215.19 502.76L1214.61 522.344H1215.48C1225.46 505.64 1240.92 497.288 1261.85 497.288C1277.21 497.288 1289.21 501.8 1297.85 510.824C1306.49 519.848 1310.9 532.04 1311.09 547.4V621.704H1327.22C1329.72 621.704 1330.97 622.856 1330.97 625.16V637.544C1330.97 639.848 1329.72 641 1327.22 641Z" fill="white"/>
</svg>
